<svg
  width="89"
  height="31"
  viewBox="0 0 89 31"
  fill="none"
  xmlns="http://www.w3.org/2000/svg"
>
  <path
    d="M83.0854 11.0555C81.1385 9.09462 78.7837 8.10486 76.0396 8.10486C73.2769 8.10486 70.8664 9.11329 68.901 11.0741C66.9541 13.035 65.9714 15.444 65.9714 18.2265C65.9714 21.0091 66.9541 23.4181 68.901 25.4163C70.8664 27.3958 73.2583 28.3856 76.0396 28.3856C77.7268 28.3856 79.3214 27.9747 80.7862 27.1531C81.4537 26.7796 82.0841 26.3314 82.6404 25.8458C83.1225 25.4537 83.3821 24.9494 83.3821 24.4079C83.3821 23.4181 82.5848 22.6151 81.6021 22.6151C81.12 22.6151 80.6564 22.8205 80.3227 23.1753C79.1731 24.2398 77.7083 24.7814 76.0581 24.7814C74.2596 24.7814 72.7577 24.1651 71.4598 22.8765C70.6069 22.0175 70.0691 21.0838 69.791 19.982H84.3091C85.2918 19.982 86.1077 19.179 86.1077 18.1892C86.0335 15.4253 85.0323 13.0163 83.0854 11.0555ZM76.0396 11.6717C77.6527 11.6717 79.0804 12.2133 80.2856 13.2964C81.2868 14.1928 81.9358 15.2199 82.2696 16.4711H69.7725C70.0506 15.4067 70.6254 14.4356 71.4412 13.6139C72.7391 12.288 74.241 11.6717 76.0396 11.6717Z"
    fill="#272B44"
  />
  <path
    d="M23.1401 18.1898C23.1216 15.426 22.1203 13.0356 20.1549 11.0747C18.412 9.338 16.3539 8.36692 13.9805 8.14282V8.12415L13.2203 8.10547C13.1647 8.10547 13.1091 8.10547 13.0534 8.10547H12.5714L12.2932 8.12415V8.14282C10.0868 8.29222 8.15844 9.09523 6.48969 10.5519V4.27716C6.41552 3.34343 5.65531 2.61511 4.70969 2.61511C3.76406 2.61511 3.00385 3.34343 2.92969 4.27716C2.92969 4.31451 2.92969 4.35186 2.92969 4.40788V18.1898V18.2272V26.3507C2.94823 27.3217 3.74552 28.1061 4.70969 28.1061C5.67385 28.1061 6.47115 27.3217 6.48969 26.3507V25.6597C8.25115 27.4898 10.4391 28.4235 13.0164 28.4235C15.7791 28.4235 18.1709 27.4338 20.1364 25.4729C22.1203 23.5121 23.1216 21.0844 23.1216 18.2832L23.1401 18.1898ZM17.6518 22.9332C16.3539 24.2217 14.8334 24.838 13.0164 24.838C11.2178 24.838 9.71594 24.2217 8.41802 22.9332C7.12011 21.626 6.48969 20.1133 6.48969 18.2645V18.2085C6.50823 16.397 7.13865 14.8844 8.39948 13.6332C9.67886 12.3446 11.1993 11.7097 13.0164 11.691L13.3501 11.7097C15.0189 11.7844 16.428 12.4193 17.6518 13.6332C18.9311 14.8844 19.543 16.3784 19.5616 18.2085V18.2645C19.5801 20.1133 18.9497 21.626 17.6518 22.9332Z"
    fill="#272B44"
  />
  <path
    d="M27.9795 2.59583C26.9968 2.59583 26.1995 3.39884 26.1995 4.3886V26.294C26.1995 27.2838 26.9968 28.0868 27.9795 28.0868C28.9622 28.0868 29.7595 27.2838 29.7595 26.294V4.3886C29.7595 3.39884 28.9622 2.59583 27.9795 2.59583Z"
    fill="#272B44"
  />
  <path
    d="M35.2107 8.42236C34.228 8.42236 33.4307 9.22538 33.4307 10.2151V26.2941C33.4307 27.2838 34.228 28.0868 35.2107 28.0868C36.1934 28.0868 36.9907 27.2838 36.9907 26.2941V10.2151C37.0092 9.22538 36.2119 8.42236 35.2107 8.42236Z"
    fill="#272B44"
  />
  <path
    d="M42.4607 8.42236C41.478 8.42236 40.6807 9.22538 40.6807 10.2151V26.2941C40.6807 27.2838 41.478 28.0868 42.4607 28.0868C43.4434 28.0868 44.2407 27.2838 44.2407 26.2941V10.2151C44.2407 9.22538 43.4434 8.42236 42.4607 8.42236Z"
    fill="#272B44"
  />
  <path
    d="M63.561 8.42236C62.8379 8.42236 62.2075 8.87056 61.9293 9.48682L56.0887 22.3163L50.2481 9.48682C49.97 8.85188 49.3396 8.42236 48.6164 8.42236C47.6337 8.42236 46.8364 9.22538 46.8364 10.2151C46.8364 10.5326 46.9106 10.8127 47.0589 11.0742L54.4941 27.1344L54.5312 27.1904C54.8835 27.7694 55.4583 28.1242 56.1073 28.1242C56.7377 28.1242 57.331 27.7694 57.6833 27.1904L57.7204 27.1344L65.1556 11.0742C65.2854 10.8127 65.3781 10.5326 65.3781 10.2151C65.341 9.22538 64.5437 8.42236 63.561 8.42236Z"
    fill="#272B44"
  />
  <path
    d="M35.2107 7.00307C36.3781 7.00307 37.3244 6.04992 37.3244 4.87416C37.3244 3.69839 36.3781 2.74524 35.2107 2.74524C34.0433 2.74524 33.0969 3.69839 33.0969 4.87416C33.0969 6.04992 34.0433 7.00307 35.2107 7.00307Z"
    fill="url(#paint0_linear)"
  />
  <path
    d="M42.4419 7.00307C43.6093 7.00307 44.5556 6.04992 44.5556 4.87416C44.5556 3.69839 43.6093 2.74524 42.4419 2.74524C41.2745 2.74524 40.3281 3.69839 40.3281 4.87416C40.3281 6.04992 41.2745 7.00307 42.4419 7.00307Z"
    fill="url(#paint1_linear)"
  />
  <defs>
    <linearGradient
      id="paint0_linear"
      x1="33.2694"
      y1="5.689"
      x2="37.178"
      y2="4.09127"
      gradientUnits="userSpaceOnUse"
    >
      <stop stop-color="#069A92" />
      <stop offset="1" stop-color="#1BB68C" />
    </linearGradient>
    <linearGradient
      id="paint1_linear"
      x1="40.5006"
      y1="5.68931"
      x2="44.4092"
      y2="4.09158"
      gradientUnits="userSpaceOnUse"
    >
      <stop stop-color="#069A92" />
      <stop offset="1" stop-color="#1BB68C" />
    </linearGradient>
  </defs>
</svg>