<svg width="39" height="12" viewBox="0 0 39 12" fill="none" xmlns="http://www.w3.org/2000/svg">
<path d="M37.2417 3.93047C36.3372 3.01943 35.2431 2.55957 33.9681 2.55957C32.6845 2.55957 31.5646 3.02811 30.6514 3.93915C29.7469 4.85019 29.2903 5.96947 29.2903 7.26228C29.2903 8.55509 29.7469 9.67437 30.6514 10.6028C31.5646 11.5225 32.6759 11.9823 33.9681 11.9823C34.7521 11.9823 35.4929 11.7915 36.1735 11.4097C36.4836 11.2362 36.7765 11.0279 37.035 10.8023C37.259 10.6201 37.3796 10.3859 37.3796 10.1342C37.3796 9.67437 37.0091 9.30128 36.5525 9.30128C36.3286 9.30128 36.1132 9.39672 35.9581 9.56158C35.424 10.0561 34.7434 10.3078 33.9767 10.3078C33.1411 10.3078 32.4433 10.0214 31.8403 9.42275C31.444 9.02363 31.1941 8.5898 31.0649 8.07788H37.8103C38.2669 8.07788 38.6459 7.70479 38.6459 7.24493C38.6115 5.96079 38.1463 4.84151 37.2417 3.93047ZM33.9681 4.2168C34.7176 4.2168 35.3809 4.46842 35.9409 4.97166C36.4061 5.38814 36.7076 5.86535 36.8627 6.44668H31.0563C31.1855 5.95212 31.4526 5.50093 31.8316 5.11916C32.4347 4.50313 33.1325 4.2168 33.9681 4.2168Z" fill="#272B44"/>
<path d="M9.39011 7.24531C9.3815 5.96117 8.9163 4.85057 8.00313 3.93953C7.19334 3.1326 6.2371 2.68142 5.13441 2.5773V2.56863L4.7812 2.55995C4.75536 2.55995 4.72951 2.55995 4.70367 2.55995H4.47969L4.35046 2.56863V2.5773C3.32531 2.64672 2.42937 3.01981 1.65404 3.69658V0.781249C1.61958 0.34742 1.26637 0.0090332 0.827019 0.0090332C0.387665 0.0090332 0.0344591 0.34742 0 0.781249C0 0.798603 0 0.815956 0 0.841986V7.24531V7.26266V11.037C0.00861478 11.4882 0.37905 11.8526 0.827019 11.8526C1.27499 11.8526 1.64542 11.4882 1.65404 11.037V10.7159C2.47244 11.5662 3.48899 12.0001 4.68644 12.0001C5.97004 12.0001 7.08135 11.5402 7.99452 10.6292C8.9163 9.71813 9.38149 8.59018 9.38149 7.28869L9.39011 7.24531ZM6.84013 9.44916C6.2371 10.0478 5.53069 10.3342 4.68644 10.3342C3.85081 10.3342 3.15301 10.0478 2.54998 9.44916C1.94694 8.8418 1.65404 8.139 1.65404 7.28001V7.25398C1.66265 6.41235 1.95556 5.70955 2.54136 5.12822C3.13578 4.52953 3.84219 4.23453 4.68644 4.22585L4.84151 4.23453C5.61684 4.26924 6.27156 4.56424 6.84013 5.12822C7.43455 5.70955 7.71884 6.40368 7.72746 7.25398V7.28001C7.73607 8.139 7.44317 8.8418 6.84013 9.44916Z" fill="#272B44"/>
<path d="M11.6385 0C11.182 0 10.8115 0.373093 10.8115 0.832952V11.0106C10.8115 11.4704 11.182 11.8435 11.6385 11.8435C12.0951 11.8435 12.4656 11.4704 12.4656 11.0106V0.832952C12.4656 0.373093 12.0951 0 11.6385 0Z" fill="#272B44"/>
<path d="M14.9984 2.70703C14.5418 2.70703 14.1714 3.08012 14.1714 3.53998V11.0105C14.1714 11.4704 14.5418 11.8435 14.9984 11.8435C15.455 11.8435 15.8254 11.4704 15.8254 11.0105V3.53998C15.834 3.08012 15.4636 2.70703 14.9984 2.70703Z" fill="#272B44"/>
<path d="M18.3668 2.70703C17.9102 2.70703 17.5398 3.08012 17.5398 3.53998V11.0105C17.5398 11.4704 17.9102 11.8435 18.3668 11.8435C18.8234 11.8435 19.1938 11.4704 19.1938 11.0105V3.53998C19.1938 3.08012 18.8234 2.70703 18.3668 2.70703Z" fill="#272B44"/>
<path d="M28.1704 2.70703C27.8345 2.70703 27.5416 2.91527 27.4123 3.2016L24.6987 9.16241L21.985 3.2016C21.8558 2.90659 21.5629 2.70703 21.2269 2.70703C20.7703 2.70703 20.3999 3.08012 20.3999 3.53998C20.3999 3.68749 20.4344 3.81763 20.5033 3.93911L23.9578 11.401L23.975 11.427C24.1387 11.696 24.4058 11.8608 24.7073 11.8608C25.0002 11.8608 25.2759 11.696 25.4395 11.427L25.4568 11.401L28.9113 3.93911C28.9716 3.81763 29.0147 3.68749 29.0147 3.53998C28.9975 3.08012 28.627 2.70703 28.1704 2.70703Z" fill="#272B44"/>
<path d="M14.9984 2.0476C15.5408 2.0476 15.9805 1.60475 15.9805 1.05847C15.9805 0.512185 15.5408 0.0693359 14.9984 0.0693359C14.4561 0.0693359 14.0164 0.512185 14.0164 1.05847C14.0164 1.60475 14.4561 2.0476 14.9984 2.0476Z" fill="#272B44"/>
<path d="M18.3581 2.0476C18.9005 2.0476 19.3401 1.60475 19.3401 1.05847C19.3401 0.512185 18.9005 0.0693359 18.3581 0.0693359C17.8157 0.0693359 17.376 0.512185 17.376 1.05847C17.376 1.60475 17.8157 2.0476 18.3581 2.0476Z" fill="#272B44"/>
</svg>
